<?xml version="1.0" standalone="no"?>
<!DOCTYPE svg PUBLIC "-//W3C//DTD SVG 20010904//EN"
 "http://www.w3.org/TR/2001/REC-SVG-20010904/DTD/svg10.dtd">
<svg version="1.0" 
    xmlns="http://www.w3.org/2000/svg" width="890.000000pt" height="890.000000pt" viewBox="0 0 890.000000 890.000000" preserveAspectRatio="xMidYMid meet">
    <g transform="translate(0.000000,890.000000) scale(0.100000,-0.100000)" fill="#99c221" stroke="none">
        <path d="M1940 8240 c-80 -10 -127 -23 -355 -95 -283 -89 -435 -152 -435 -179
0 -10 -28 -15 -107 -20 -111 -6 -156 -15 -233 -44 l-45 -16 35 -6 35 -6 -55
-18 c-30 -10 -62 -25 -72 -33 -19 -17 -28 -46 -19 -61 12 -19 63 -33 100 -26
l36 6 -55 -56 -54 -56 49 -1 50 -1 -70 -32 c-112 -53 -219 -181 -353 -423
-158 -284 -291 -666 -361 -1036 -26 -135 -38 -277 -24 -277 6 0 14 12 17 26 4
15 9 24 11 22 3 -2 -5 -51 -16 -109 -18 -90 -20 -128 -15 -279 2 -96 9 -188
14 -205 10 -31 13 -28 28 30 l8 30 4 -35 c6 -60 18 -54 45 22 53 148 96 360
98 482 1 39 5 82 9 96 8 25 8 25 15 -7 4 -18 11 -33 15 -33 4 0 29 62 55 138
164 481 407 921 574 1036 l41 29 62 -19 c35 -10 108 -20 163 -23 l100 -6 -54
-19 c-42 -14 -50 -21 -38 -28 22 -12 236 -68 267 -69 24 -2 24 -2 3 -6 -34 -7
-28 -15 32 -47 30 -17 53 -31 52 -33 -2 -1 -32 7 -68 17 -103 32 -329 89 -391
98 -59 9 -70 4 -43 -18 24 -20 18 -26 -25 -22 -44 4 -97 -3 -118 -17 -11 -6
-10 -15 4 -44 16 -34 21 -36 68 -39 49 -3 50 -4 24 -15 -17 -8 -28 -20 -28
-33 0 -17 -6 -20 -47 -20 -64 0 -154 -27 -189 -56 -16 -14 -24 -27 -19 -30 6
-2 26 -14 45 -27 l35 -22 -47 -3 c-41 -3 -49 -7 -54 -28 -15 -59 33 -124 147
-199 l68 -45 78 25 c100 32 105 31 52 -6 -67 -48 -67 -47 -34 -74 23 -18 26
-24 13 -25 -36 0 -124 -48 -156 -85 -29 -33 -33 -42 -27 -73 11 -59 55 -158
80 -182 22 -21 27 -21 95 -11 40 7 75 10 77 8 2 -3 -23 -14 -57 -27 -33 -12
-60 -26 -60 -30 0 -16 97 -115 139 -142 39 -24 55 -28 125 -29 l81 -1 -111
-36 c-143 -48 -165 -62 -155 -100 11 -36 48 -109 74 -144 19 -26 26 -28 94
-28 40 0 73 -4 73 -9 0 -5 -22 -14 -50 -21 -27 -7 -50 -14 -50 -17 0 -3 17
-28 37 -55 44 -58 116 -115 193 -153 53 -27 56 -27 135 -16 118 16 127 14 66
-18 l-54 -28 47 -28 c26 -15 45 -30 42 -32 -3 -3 -48 -9 -101 -12 -53 -4 -101
-13 -107 -19 -8 -8 -1 -24 26 -60 20 -27 36 -53 36 -57 0 -4 -25 14 -56 40
l-55 48 -29 -28 c-34 -33 -66 -94 -53 -104 4 -5 118 -34 253 -66 135 -33 247
-60 249 -62 13 -10 -20 -15 -131 -21 l-123 -7 85 -46 c47 -25 112 -56 145 -69
33 -12 66 -25 74 -29 8 -4 21 -34 28 -67 26 -114 35 -138 61 -163 15 -14 38
-51 52 -81 46 -104 86 -143 109 -103 8 14 12 11 25 -22 36 -86 76 -100 77 -27
l1 47 14 -32 c8 -18 15 -33 17 -33 2 0 25 30 53 67 l49 68 3 -67 c2 -43 -2
-79 -12 -102 -8 -20 -11 -36 -6 -36 5 0 36 26 70 57 63 58 99 116 119 191 7
23 16 42 22 42 5 0 32 22 59 50 28 27 50 43 50 35 0 -17 31 -28 56 -19 10 3
-9 -19 -42 -49 -63 -57 -103 -122 -87 -138 8 -8 67 6 164 36 23 8 23 7 6 -18
-27 -42 -22 -47 46 -47 80 0 200 29 306 74 47 20 85 35 86 33 12 -27 65 -82
90 -94 31 -15 35 -21 41 -72 9 -79 51 -217 82 -274 14 -27 44 -65 66 -83 36
-31 41 -33 48 -17 3 10 7 54 7 97 1 68 -3 86 -24 123 -25 41 -23 57 4 31 10
-11 11 0 6 52 -5 51 -3 69 9 85 13 17 17 18 26 5 5 -8 10 -24 10 -35 0 -11 7
-31 15 -45 13 -24 14 -24 20 -5 16 48 26 66 40 72 9 3 18 3 21 0 3 -2 -6 -47
-20 -98 -60 -228 -92 -505 -68 -589 l10 -35 7 33 c12 51 20 45 21 -16 1 -32 8
-73 17 -92 l15 -35 1 42 c1 50 21 70 21 21 0 -47 17 -103 40 -130 14 -16 18
-18 14 -5 -3 9 -3 28 0 41 5 22 10 24 40 19 80 -13 146 21 146 75 0 21 2 24
10 12 15 -24 12 -49 -11 -81 -12 -17 -23 -47 -26 -69 -5 -35 -3 -40 28 -56 19
-10 57 -18 86 -18 l53 -1 0 -45 1 -45 20 35 20 35 -6 -52 c-3 -28 -12 -69 -21
-90 l-15 -38 25 27 c25 27 66 124 66 156 0 34 15 39 140 45 75 4 157 14 204
27 92 23 86 22 86 12 0 -5 -11 -15 -25 -22 -29 -16 -26 -21 23 -36 20 -7 29
-12 19 -13 -10 -1 -17 -6 -15 -13 6 -18 118 -76 162 -84 39 -6 39 -7 16 -19
l-24 -13 39 -17 c22 -9 52 -19 68 -22 24 -5 26 -7 10 -18 -15 -11 -15 -13 5
-24 11 -6 28 -11 36 -11 18 0 21 -16 6 -25 -23 -14 -50 -87 -64 -172 -8 -50
-19 -100 -25 -111 -8 -15 -8 -21 2 -25 8 -3 5 -12 -10 -29 -30 -32 -29 -38 8
-38 24 0 30 -4 25 -15 -21 -55 -28 -222 -22 -493 7 -301 1 -372 -31 -372 -30
0 -169 65 -237 111 -136 92 -85 1 108 -191 106 -105 116 -118 116 -152 0 -54
-5 -62 -94 -137 -199 -167 -256 -251 -171 -251 41 0 86 19 150 62 28 19 55 37
62 41 8 5 17 -11 27 -47 27 -91 89 -146 166 -146 17 0 73 -20 125 -45 142 -67
208 -87 310 -92 259 -12 244 -8 277 -61 25 -41 34 -30 19 26 -25 91 -124 171
-213 172 -75 1 5 19 177 39 98 12 194 29 212 38 33 15 85 14 127 -3 16 -6 15
-1 -8 29 -63 82 -200 107 -366 66 -78 -20 -121 -24 -240 -24 -136 0 -148 2
-190 25 -83 46 -112 153 -112 415 0 184 6 249 53 540 l31 190 50 55 50 54 -7
-34 -7 -35 37 50 c57 78 89 148 109 237 4 16 10 28 15 28 5 0 49 19 98 42 48
23 93 44 98 46 6 3 -6 -13 -25 -33 l-35 -38 50 28 c68 38 128 79 200 135 41
33 97 62 180 94 66 26 144 61 174 77 29 17 55 28 57 26 3 -2 -19 -26 -48 -52
-40 -36 -47 -46 -28 -40 49 15 121 56 159 90 l38 35 5 -98 c4 -76 12 -117 37
-187 18 -49 41 -129 51 -176 19 -90 38 -136 64 -158 14 -12 16 -10 16 15 0 28
1 27 26 -16 14 -25 42 -61 64 -80 55 -51 475 -505 594 -642 66 -76 66 -77 -9
-139 -54 -45 -114 -78 -200 -110 -30 -11 -55 -24 -55 -29 0 -13 68 -30 120
-30 54 0 214 33 264 54 45 19 60 13 80 -29 23 -49 20 -79 -19 -165 -37 -83
-45 -149 -21 -169 22 -19 52 2 92 65 l35 54 32 -16 c51 -26 115 -94 153 -161
41 -73 85 -113 123 -113 39 0 60 -19 74 -68 13 -43 13 -43 31 -23 11 12 21 42
24 71 4 40 -1 60 -23 105 -15 31 -24 62 -21 70 10 26 73 28 204 7 215 -36 292
-44 438 -47 150 -3 171 -9 243 -63 l34 -25 -29 52 c-33 62 -87 111 -161 148
-55 27 -61 34 -40 51 12 10 76 3 122 -14 16 -6 14 0 -10 25 -64 69 -153 100
-230 80 -204 -54 -392 -50 -520 10 -97 46 -207 156 -478 481 -141 168 -295
352 -344 410 -89 106 -131 181 -139 249 l-4 36 18 -37 c10 -21 22 -41 26 -45
16 -16 -9 164 -31 225 -5 14 -3 14 17 -3 l23 -20 -6 20 c-61 207 -61 210 -61
325 -1 109 1 119 33 190 62 139 118 285 131 340 8 37 25 71 52 103 59 71 107
155 124 217 14 49 32 72 168 218 143 152 158 165 236 203 100 48 225 128 299
192 30 26 56 45 58 43 2 -2 -1 -15 -6 -30 -6 -14 -7 -26 -3 -26 21 0 202 149
302 250 164 164 275 336 316 491 20 75 34 96 35 54 1 -62 17 11 30 134 18 185
-5 365 -64 501 l-15 35 36 20 c43 24 82 92 82 145 0 19 10 60 21 90 29 75 30
186 2 258 -12 28 -18 52 -14 52 33 0 173 -45 204 -66 44 -29 57 -25 57 17 0
40 -21 85 -63 139 l-36 45 28 30 c41 43 62 89 68 151 5 47 4 54 -12 54 -13 0
-16 5 -11 23 13 45 18 242 7 271 -10 25 -15 28 -41 22 l-30 -5 -1 82 c-1 164
-38 223 -80 127 -22 -51 -68 -100 -95 -100 -20 0 -18 52 6 129 27 86 52 233
42 243 -14 14 -35 0 -62 -40 -14 -20 -51 -70 -82 -110 -32 -40 -61 -84 -64
-98 -3 -13 -10 -24 -14 -24 -24 0 -34 41 -41 183 -13 221 -46 367 -83 367 -25
0 -37 -28 -35 -82 1 -30 -7 -89 -20 -135 -11 -45 -24 -110 -28 -143 -8 -82
-22 -67 -66 75 -31 99 -56 165 -104 278 -19 44 -59 91 -72 83 -5 -3 -6 -25 -4
-50 7 -59 -11 -67 -37 -16 -12 23 -26 39 -33 37 -18 -6 -11 -69 19 -174 14
-51 24 -103 22 -115 -8 -60 -86 -7 -128 86 -29 65 -128 180 -161 189 -29 8
-34 -16 -15 -66 19 -51 21 -93 4 -104 -7 -4 -35 -8 -63 -8 -52 0 -57 -6 -40
-47 5 -14 2 -18 -14 -18 -28 0 -37 -25 -21 -55 11 -20 10 -26 -4 -40 -19 -19
-20 -37 -4 -53 7 -7 11 -32 9 -56 -1 -27 4 -59 14 -80 36 -76 153 -155 293
-198 82 -25 172 -71 204 -105 l23 -25 -35 7 c-69 15 -198 6 -186 -14 3 -4 -42
-20 -100 -35 -133 -34 -257 -79 -309 -111 l-40 -24 30 -1 c26 -1 27 -3 10 -10
-11 -5 -74 -25 -140 -45 -128 -39 -291 -113 -320 -145 -18 -19 -17 -20 6 -20
13 -1 -33 -23 -103 -50 -152 -58 -275 -121 -332 -168 -57 -48 -434 -226 -569
-269 -31 -10 -57 -23 -57 -28 0 -6 -53 -28 -117 -50 -133 -44 -261 -106 -320
-153 -41 -32 -41 -32 -156 -32 -123 0 -202 -12 -252 -38 l-30 -16 30 -6 c26
-5 22 -7 -25 -13 -89 -11 -210 -46 -287 -83 -76 -36 -98 -60 -41 -43 18 5 35
9 38 9 3 -1 -58 -31 -136 -69 -78 -37 -144 -73 -148 -80 -13 -20 -28 -12 -21
12 17 57 58 127 86 145 40 25 21 37 -27 17 -36 -15 -36 -15 -30 8 4 12 10 40
13 62 l5 40 -26 -27 c-38 -40 -46 -35 -30 19 18 59 18 154 0 178 -12 16 -14
13 -20 -32 -3 -27 -13 -58 -21 -69 -13 -17 -14 -14 -15 41 0 33 -3 70 -6 83
-11 38 -24 24 -24 -26 0 -27 -6 -57 -14 -67 -13 -17 -14 -16 -19 21 -16 106
-18 145 -8 180 6 21 8 40 6 42 -8 9 -38 -23 -51 -53 l-12 -30 -7 48 c-4 26 -4
58 -1 72 4 14 2 25 -3 25 -14 0 -41 -41 -41 -62 0 -10 -4 -18 -9 -18 -14 0
-79 108 -99 163 -9 26 -20 47 -24 47 -4 0 -11 -19 -16 -42 -9 -42 -9 -42 -20
-17 -5 14 -19 80 -31 147 -26 152 -92 401 -131 496 -40 96 -183 338 -326 553
-124 186 -215 305 -303 396 -53 55 -141 127 -155 127 -4 0 8 -21 26 -47 l32
-48 -29 20 c-310 204 -568 321 -826 374 -112 23 -279 33 -369 21z"/>
    </g>
</svg>
